<mxfile host="app.diagrams.net" modified="2024-05-20T18:35:18.591Z" agent="Mozilla/5.0 (Windows NT 10.0; Win64; x64) AppleWebKit/537.36 (KHTML, like Gecko) Chrome/124.0.0.0 Safari/537.36" version="24.4.4" etag="0fyaBK7KrWN_tC7bLPC7" type="github">
  <diagram name="Page-1" id="VSy37NgZlvn0QxFO5t5n">
    <mxGraphModel>
      <root>
        <mxCell id="0" />
        <mxCell id="1" parent="0" />
      </root>
    </mxGraphModel>
  </diagram>
</mxfile>
